<svg id="Layer_1" data-name="Layer 1" xmlns="http://www.w3.org/2000/svg" viewBox="0 0 250 249.45"><defs><style>.cls-1{fill:rgba(46, 75, 73, .6);}.cls-2{fill:#8c6151;}.cls-3{fill:rgba(158, 191, 38, .6);}</style></defs><title>accounting</title><path class="cls-1" d="M116.74,118.76,62.31,17.33A125.11,125.11,0,0,0,5.67,88Z" transform="translate(0 -0.53)"/><path class="cls-1" d="M125.76,116.8l60.1-100.51A125.45,125.45,0,0,0,70.15,13.15Z" transform="translate(0 -0.53)"/><path class="cls-1" d="M131.55,124.44l100.07,65.93A124.57,124.57,0,0,0,193.46,20.89Z" transform="translate(0 -0.53)"/><path class="cls-2" d="M65.15,15.73l1.09-.58Z" transform="translate(0 -0.53)"/><path class="cls-2" d="M228.6,195.06l.88-1.33Z" transform="translate(0 -0.53)"/><path class="cls-3" d="M123.69,129.89,3.32,96.58A124.77,124.77,0,0,0,0,125.25C0,194.13,56,250,125,250a124.91,124.91,0,0,0,101.71-52.21Z" transform="translate(0 -0.53)"/><path class="cls-2" d="M4.41,92.32l.46-1.63C4.71,91.23,4.56,91.78,4.41,92.32Z" transform="translate(0 -0.53)"/></svg>