<svg version="1.1" xmlns="http://www.w3.org/2000/svg" xmlns:xlink="http://www.w3.org/1999/xlink" x="0px" y="0px"
	 width="149.83px" height="62.95px" viewBox="0 0 149.83 62.95" style="enable-background:new 0 0 149.83 62.95;"
	 xml:space="preserve">
<style type="text/css">
	.st0{opacity:0.5;}
	.st1{fill:rgba(112, 149, 124, 1.0);}
</style>
<defs>
</defs>
<g>
	<g class="st0">
		<path class="st1" d="M133.12,6.79c1.7,0.84,3.03,2.04,4.01,3.6c0.97,1.56,1.46,3.4,1.46,5.52c0,2.45-0.66,4.58-1.98,6.39
			c-1.32,1.81-3.08,3.27-5.28,4.36c-1.87,0.9-5.67,2.23-11.39,4.01c2.87,1.2,4.99,2.93,6.35,5.21c1.36,2.27,2.04,4.87,2.04,7.79
			c0,3.17-0.94,6.16-2.83,8.97c-1.89,2.81-4.6,5.08-8.15,6.8c-3.55,1.72-7.69,2.58-12.44,2.58c-4.47,0-8.6-0.78-12.38-2.34
			c-3.78-1.56-6.81-3.79-9.06-6.69c-2.26-2.9-3.39-6.25-3.39-10.08c0-3.37,0.84-6.22,2.51-8.54c1.67-2.32,3.58-4.09,5.71-5.3
			c2.14-1.21,4.11-2.05,5.94-2.53c-2.5-1.07-4.41-2.5-5.73-4.27c-1.32-1.77-1.99-3.65-1.99-5.62c0-1.7,0.5-3.28,1.5-4.74
			c1-1.46,2.47-2.63,4.42-3.52c1.95-0.89,4.29-1.33,7.04-1.33c3.42,0,6.08,0.77,7.98,2.32c0.95,0.77,1.66,1.63,2.13,2.57
			c0.47,0.94,0.71,1.84,0.71,2.72c0,1.22-0.44,2.21-1.31,2.96c-0.87,0.75-1.87,1.12-3,1.12c-1.1,0-2.04-0.35-2.83-1.05
			c-0.79-0.7-1.18-1.64-1.18-2.81c0-1.1,0.38-2.05,1.14-2.85c0.76-0.8,1.74-1.25,2.94-1.35c-0.22-0.67-0.87-1.25-1.95-1.74
			c-1.07-0.49-2.37-0.73-3.9-0.73c-2.67,0-4.82,0.8-6.44,2.4c-1.62,1.6-2.43,3.85-2.43,6.74c0,3.42,1.3,6.33,3.9,8.73
			c1.77-0.3,3.36-0.45,4.76-0.45c0.95,0,1.7,0.15,2.25,0.45c0.55,0.3,0.82,0.74,0.82,1.31c0,0.45-0.19,0.81-0.58,1.07
			c-0.39,0.26-0.91,0.39-1.55,0.39c-0.75,0-1.55-0.14-2.4-0.41c-0.85-0.27-1.56-0.54-2.14-0.81c-0.57-0.26-0.94-0.42-1.09-0.47
			c-6.64,1.97-9.96,6.17-9.96,12.58c0,3.42,0.9,6.38,2.7,8.88c1.8,2.5,4.26,4.4,7.38,5.71c3.12,1.31,6.62,1.97,10.49,1.97
			c3.65,0,7-0.57,10.08-1.7c3.07-1.14,5.52-2.77,7.34-4.91c1.82-2.13,2.73-4.61,2.73-7.44c0-2-0.54-4.05-1.63-6.16
			c-1.09-2.11-3.12-3.76-6.09-4.96c-4.32,1.35-7.27,2.32-8.84,2.92c-2.15,0.82-3.81,1.76-4.98,2.81s-1.76,2.33-1.76,3.86
			c0,1.25,0.37,2.34,1.1,3.28c0.74,0.94,1.65,1.65,2.75,2.14c1.1,0.49,2.16,0.73,3.18,0.73c0.87,0,1.83-0.15,2.87-0.45
			c1.04-0.3,1.62-0.71,1.74-1.24c-0.97-0.17-1.82-0.57-2.53-1.2c-0.71-0.62-1.07-1.52-1.07-2.7c0-1.2,0.4-2.17,1.2-2.9
			c0.8-0.74,1.8-1.1,3-1.1c1.22,0,2.21,0.38,2.96,1.14c0.75,0.76,1.12,1.77,1.12,3.02c0,1.37-0.46,2.56-1.39,3.56
			c-0.92,1-2.09,1.75-3.5,2.27c-1.41,0.51-2.83,0.77-4.25,0.77c-1.55,0-3.05-0.32-4.51-0.97c-1.46-0.65-2.66-1.65-3.6-3
			c-0.94-1.35-1.4-3.02-1.4-5.02c0-2.6,0.88-4.81,2.64-6.63c1.76-1.82,4.41-3.35,7.96-4.57c1.1-0.35,2.95-0.9,5.54-1.65
			c6.04-1.67,10.44-3.13,13.18-4.38c2.42-1.15,4.13-2.32,5.11-3.5c0.99-1.19,1.48-2.48,1.48-3.88c0-1.42-0.41-2.73-1.24-3.91
			s-1.92-2.12-3.28-2.81c-1.36-0.69-2.83-1.03-4.4-1.03c-1.3,0-2.06,0.22-2.28,0.67c0.67,0.35,1.2,0.86,1.57,1.52
			c0.37,0.66,0.56,1.34,0.56,2.04c0,1.05-0.42,1.94-1.27,2.66c-0.85,0.72-1.86,1.09-3.03,1.09c-1.1,0-2.05-0.33-2.85-0.99
			c-0.8-0.66-1.2-1.6-1.2-2.83c0-1.25,0.42-2.27,1.27-3.07c0.85-0.8,1.92-1.37,3.2-1.72c1.29-0.35,2.6-0.52,3.95-0.52
			C129.51,5.53,131.42,5.95,133.12,6.79z"/>
	</g>
	<g>
		<path class="st1" d="M18.74,15.21c1.2,1.24,1.79,2.73,1.79,4.48c0,1.45-0.37,2.73-1.11,3.85c-0.74,1.12-1.8,2-3.19,2.63
			c-1.38,0.63-3.02,0.94-4.9,0.94l-1.76-0.04C7.93,27.02,6.32,27,4.75,27C2.66,27,1.07,27.04,0,27.11v-0.77
			c0.92-0.04,1.59-0.14,2.01-0.3c0.42-0.16,0.7-0.46,0.86-0.9c0.16-0.44,0.23-1.13,0.23-2.09v-19c0-0.96-0.08-1.66-0.23-2.09
			c-0.16-0.44-0.44-0.74-0.86-0.9C1.59,0.9,0.92,0.8,0,0.77V0c1.06,0.07,2.62,0.11,4.67,0.11c0.45,0,1.83-0.02,4.15-0.06l1.63-0.02
			c1.75,0,3.22,0.25,4.43,0.76S17,2,17.61,2.91c0.61,0.9,0.92,1.95,0.92,3.15c0,1.47-0.46,2.79-1.39,3.96
			c-0.93,1.17-2.4,2.07-4.42,2.69v0.07C15.53,13.16,17.54,13.97,18.74,15.21z M7.7,1.04C7.3,1.22,7.03,1.54,6.88,2
			C6.73,2.46,6.66,3.15,6.66,4.06v8.66h2.58c2.08,0,3.54-0.57,4.38-1.7c0.83-1.13,1.25-2.65,1.25-4.54c0-1.92-0.42-3.35-1.27-4.29
			c-0.85-0.94-2.21-1.41-4.09-1.41C8.7,0.77,8.1,0.86,7.7,1.04z M16.7,19.52c0-2.01-0.55-3.53-1.64-4.58s-2.82-1.57-5.19-1.57H6.66
			v9.69c0,0.92,0.08,1.6,0.22,2.04c0.15,0.44,0.42,0.74,0.82,0.9c0.4,0.16,1.01,0.24,1.83,0.24C14.31,26.23,16.7,24,16.7,19.52z"/>
		<path class="st1" d="M37.7,25.03c-0.65,0.78-1.47,1.41-2.45,1.9c-0.98,0.49-2.07,0.73-3.28,0.73c-1.82,0-3.39-0.42-4.72-1.24
			c-1.33-0.83-2.34-1.99-3.04-3.5c-0.7-1.5-1.05-3.23-1.05-5.19c0-2.22,0.36-4.14,1.07-5.78c0.71-1.63,1.72-2.89,3.02-3.77
			s2.83-1.32,4.57-1.32c2.29,0,4.06,0.7,5.3,2.08c1.24,1.39,1.86,3.5,1.86,6.33H27.02c-0.09,0.69-0.13,1.5-0.13,2.45
			c0,1.68,0.28,3.15,0.83,4.41c0.55,1.26,1.28,2.23,2.18,2.9c0.9,0.67,1.84,1.01,2.84,1.01c2.57,0,4.44-1.28,5.63-3.83l0.77,0.3
			C38.83,23.41,38.36,24.25,37.7,25.03z M29.5,8.35c-0.66,0.5-1.22,1.28-1.66,2.32c-0.45,1.04-0.74,2.33-0.88,3.88h8.34
			c0.05-1.27-0.06-2.44-0.32-3.5s-0.67-1.9-1.23-2.52c-0.56-0.62-1.25-0.93-2.08-0.93C30.89,7.59,30.17,7.84,29.5,8.35z"/>
		<path class="st1" d="M52.24,7.25c0.8,0.26,1.42,0.61,1.87,1.06c0.59,0.6,0.99,1.29,1.21,2.08c0.22,0.79,0.33,1.89,0.33,3.28v10.64
			c0,0.64,0.09,1.1,0.27,1.38s0.48,0.43,0.91,0.43c0.31,0,0.6-0.07,0.86-0.21c0.26-0.14,0.55-0.34,0.86-0.6l0.43,0.65
			c-0.45,0.34-0.82,0.6-1.12,0.79c-0.3,0.19-0.64,0.34-1.03,0.45c-0.39,0.11-0.84,0.17-1.35,0.17c-1.23,0-2.09-0.31-2.57-0.93
			c-0.48-0.62-0.72-1.44-0.72-2.48c-0.75,1.23-1.65,2.11-2.69,2.63c-1.05,0.52-2.11,0.78-3.2,0.78c-0.89,0-1.7-0.15-2.43-0.46
			s-1.32-0.78-1.77-1.42c-0.44-0.64-0.66-1.44-0.66-2.4c0-0.97,0.24-1.8,0.71-2.49s1.14-1.29,2-1.8c0.86-0.52,2.01-1.08,3.46-1.69
			l0.75-0.32c0.92-0.36,1.64-0.67,2.14-0.92s0.91-0.54,1.22-0.87c0.31-0.33,0.47-0.71,0.47-1.15v-2.37c0-1.48-0.31-2.5-0.93-3.04
			c-0.62-0.54-1.49-0.81-2.63-0.81c-1.81,0-3.07,0.46-3.8,1.37c0.51,0.12,0.94,0.4,1.28,0.81c0.34,0.42,0.51,0.93,0.51,1.52
			c0,0.65-0.2,1.16-0.61,1.52c-0.41,0.37-0.95,0.55-1.64,0.55c-0.65,0-1.16-0.22-1.52-0.65c-0.37-0.44-0.55-1.01-0.55-1.72
			c0-1,0.6-1.91,1.79-2.73c0.62-0.41,1.39-0.75,2.31-1.03c0.92-0.27,1.94-0.41,3.06-0.41C50.52,6.86,51.44,6.99,52.24,7.25z
			 M51.25,16.23c-0.44,0.25-1.35,0.71-2.73,1.38c-0.74,0.35-1.36,0.71-1.87,1.08c-0.51,0.37-0.95,0.86-1.31,1.49
			c-0.36,0.62-0.54,1.39-0.54,2.3c0,1.11,0.28,1.95,0.84,2.52s1.3,0.85,2.23,0.85c1.7,0,3.13-0.97,4.32-2.9v-7.52
			C52,15.71,51.68,15.98,51.25,16.23z"/>
		<path class="st1" d="M76.21,8.3c0.47,0.52,0.81,1.17,1.02,1.94s0.31,1.8,0.31,3.09v10.23c0,0.71,0.1,1.27,0.29,1.66
			c0.19,0.4,0.5,0.68,0.92,0.84c0.42,0.16,0.99,0.24,1.71,0.24v0.8l-0.56-0.02c-1.6-0.09-2.94-0.13-4.04-0.13
			c-1.05,0-2.3,0.04-3.76,0.13l-0.52,0.02v-0.8c0.64,0,1.13-0.08,1.49-0.24c0.36-0.16,0.62-0.44,0.79-0.84
			c0.17-0.4,0.25-0.95,0.25-1.66V12.49c0-0.92-0.07-1.7-0.22-2.32c-0.14-0.62-0.44-1.13-0.9-1.51c-0.46-0.39-1.12-0.58-1.99-0.58
			c-1.05,0-1.98,0.31-2.8,0.92s-1.45,1.45-1.9,2.51c-0.45,1.07-0.67,2.25-0.67,3.54v8.51c0,0.71,0.08,1.27,0.25,1.66
			c0.17,0.4,0.43,0.68,0.79,0.84c0.36,0.16,0.86,0.24,1.5,0.24v0.8l-0.52-0.02c-1.42-0.09-2.68-0.13-3.78-0.13
			c-1.1,0-2.44,0.04-4.04,0.13l-0.56,0.02v-0.8c0.72,0,1.29-0.08,1.71-0.24c0.42-0.16,0.72-0.44,0.92-0.84
			c0.19-0.4,0.29-0.95,0.29-1.66V11.57c0-1.18-0.22-2.04-0.65-2.58c-0.43-0.54-1.19-0.8-2.27-0.8v-0.8c0.8,0.07,1.59,0.11,2.37,0.11
			c1.62,0,2.95-0.17,3.98-0.52v4.51c0.64-1.62,1.52-2.8,2.66-3.52c1.14-0.73,2.43-1.09,3.86-1.09C73.93,6.86,75.29,7.34,76.21,8.3z"
			/>
	</g>
	<g>
		<path class="st1" d="M12.95,30.9c-2.82,0-5.05,0.94-6.69,2.82s-2.45,4.46-2.45,7.73c0,3.36,0.79,5.96,2.36,7.8
			s3.82,2.75,6.74,2.75c1.79,0,3.84-0.32,6.13-0.97v2.62c-1.78,0.67-3.98,1-6.59,1c-3.79,0-6.71-1.15-8.76-3.45
			s-3.08-5.56-3.08-9.79c0-2.65,0.5-4.97,1.49-6.96s2.42-3.53,4.29-4.61s4.07-1.62,6.6-1.62c2.7,0,5.05,0.49,7.07,1.48l-1.27,2.57
			C16.84,31.36,14.89,30.9,12.95,30.9z"/>
		<path class="st1" d="M40.84,44.65c0,3.14-0.79,5.59-2.37,7.36s-3.77,2.65-6.56,2.65c-1.72,0-3.25-0.4-4.59-1.21
			s-2.37-1.97-3.09-3.48s-1.09-3.28-1.09-5.31c0-3.14,0.79-5.59,2.36-7.34s3.75-2.63,6.54-2.63c2.7,0,4.84,0.9,6.42,2.69
			S40.84,41.59,40.84,44.65z M26.17,44.65c0,2.46,0.49,4.34,1.48,5.62s2.43,1.93,4.34,1.93s3.36-0.64,4.35-1.92s1.49-3.16,1.49-5.63
			c0-2.45-0.5-4.31-1.49-5.58s-2.45-1.91-4.39-1.91c-1.91,0-3.35,0.63-4.32,1.88S26.17,42.16,26.17,44.65z"/>
		<path class="st1" d="M48.7,35.03v12.5c0,1.57,0.36,2.74,1.07,3.52s1.83,1.16,3.36,1.16c2.02,0,3.49-0.55,4.42-1.65
			s1.4-2.9,1.4-5.4V35.03h2.92V54.3h-2.41l-0.42-2.58h-0.16c-0.6,0.95-1.43,1.68-2.49,2.18s-2.27,0.76-3.63,0.76
			c-2.34,0-4.1-0.56-5.26-1.67s-1.75-2.89-1.75-5.34v-12.6H48.7z"/>
		<path class="st1" d="M81.24,54.3V41.83c0-1.57-0.36-2.74-1.07-3.52s-1.83-1.16-3.36-1.16c-2.02,0-3.49,0.54-4.43,1.63
			s-1.41,2.89-1.41,5.4V54.3h-2.92V35.03h2.37l0.47,2.64h0.14c0.6-0.95,1.44-1.68,2.51-2.21s2.28-0.78,3.6-0.78
			c2.32,0,4.07,0.56,5.24,1.68s1.76,2.91,1.76,5.37V54.3H81.24z"/>
		<path class="st1" d="M96.37,52.24c0.52,0,1.01-0.04,1.49-0.11s0.86-0.16,1.14-0.24v2.23c-0.32,0.15-0.78,0.28-1.4,0.38
			s-1.17,0.15-1.66,0.15c-3.73,0-5.59-1.96-5.59-5.89V37.3H87.6v-1.41l2.76-1.21l1.23-4.11h1.69v4.46h5.59v2.27h-5.59v11.34
			c0,1.16,0.28,2.05,0.83,2.67S95.41,52.24,96.37,52.24z"/>
		<path class="st1" d="M102.61,29.81c0-0.67,0.16-1.16,0.49-1.47s0.74-0.47,1.23-0.47c0.47,0,0.87,0.16,1.21,0.47
			s0.51,0.8,0.51,1.46s-0.17,1.15-0.51,1.47s-0.74,0.48-1.21,0.48c-0.49,0-0.9-0.16-1.23-0.48S102.61,30.47,102.61,29.81z
			 M105.78,54.3h-2.92V35.03h2.92V54.3z"/>
		<path class="st1" d="M125.15,54.3V41.83c0-1.57-0.36-2.74-1.07-3.52s-1.83-1.16-3.36-1.16c-2.02,0-3.49,0.54-4.43,1.63
			s-1.41,2.89-1.41,5.4V54.3h-2.92V35.03h2.37l0.47,2.64h0.14c0.6-0.95,1.44-1.68,2.51-2.21s2.28-0.78,3.6-0.78
			c2.32,0,4.07,0.56,5.24,1.68s1.76,2.91,1.76,5.37V54.3H125.15z"/>
		<path class="st1" d="M149.83,35.03v1.85l-3.57,0.42c0.33,0.41,0.62,0.95,0.88,1.61s0.39,1.41,0.39,2.24
			c0,1.89-0.64,3.39-1.93,4.52s-3.06,1.69-5.31,1.69c-0.57,0-1.11-0.05-1.62-0.14c-1.24,0.66-1.86,1.48-1.86,2.48
			c0,0.53,0.22,0.92,0.65,1.17s1.18,0.38,2.23,0.38h3.41c2.09,0,3.69,0.44,4.81,1.32s1.68,2.16,1.68,3.83
			c0,2.13-0.86,3.76-2.57,4.88s-4.21,1.68-7.49,1.68c-2.52,0-4.46-0.47-5.83-1.41s-2.05-2.26-2.05-3.97c0-1.17,0.38-2.19,1.12-3.04
			s1.8-1.44,3.16-1.74c-0.49-0.22-0.91-0.57-1.24-1.04s-0.5-1.01-0.5-1.63c0-0.7,0.19-1.32,0.56-1.85s0.97-1.04,1.78-1.53
			c-1-0.41-1.81-1.11-2.43-2.09s-0.94-2.11-0.94-3.38c0-2.11,0.63-3.74,1.9-4.88s3.06-1.71,5.38-1.71c1.01,0,1.92,0.12,2.72,0.35
			H149.83z M134.47,57.53c0,1.04,0.44,1.83,1.32,2.37s2.14,0.81,3.78,0.81c2.45,0,4.26-0.37,5.44-1.1s1.77-1.73,1.77-2.98
			c0-1.04-0.32-1.77-0.97-2.17s-1.86-0.61-3.64-0.61h-3.5c-1.32,0-2.36,0.32-3.09,0.95S134.47,56.35,134.47,57.53z M136.05,41.2
			c0,1.35,0.38,2.37,1.14,3.06s1.82,1.04,3.18,1.04c2.85,0,4.27-1.38,4.27-4.15c0-2.89-1.44-4.34-4.32-4.34
			c-1.37,0-2.43,0.37-3.16,1.11S136.05,39.75,136.05,41.2z"/>
	</g>
</g>
</svg>
