<svg version="1.1" xmlns="http://www.w3.org/2000/svg" xmlns:xlink="http://www.w3.org/1999/xlink" x="0px" y="0px"
	 width="723.49px" height="727.48px" viewBox="0 0 723.49 727.48" style="enable-background:new 0 0 723.49 727.48;"
	 xml:space="preserve">
<style type="text/css">
	.st0{fill:rgba(158, 191, 38, .4);}
	.st1{fill:rgba(46, 75, 73, .4);}
</style>
<defs>
</defs>
<g id="bean.psd_2_">
	<g>
		<path class="st0" d="M278.44,661.77c29.68-51.39,31.4-107.43,21.55-163.16c-12.46-70.45-6.13-133.44,40.22-192.53
			c15.28-19.48,20.61-53.7,17.27-79.47c-7.66-59.18-0.92-109.67,43.41-154.37C420.28,52.68,430.04,23.59,449.38,0
			c16.16,78.98,66.62,156.84,1.69,234.64c-17.08,20.47-39.11,37.46-60.96,53.15c-45.48,32.68-71.64,75.92-82.55,140.15
			c19.57-20.57,33.93-33.96,46.22-49.05c12.2-14.98,22.94-31.27,33.24-47.65c26.63-42.35,67.36-61.8,117.13-44.01
			c73.41,26.23,144.46,59.06,219.33,90.25c-93.17,82.24-231.26,93.99-326.87,32.12c-35.23-22.8-79.72,9.04-81.56,60.62
			c-1.02,28.56,5.54,57.4,4.5,85.96c-1.42,39.12-3.5,79.41-41.25,104.86L278.44,661.77z"/>
		<path class="st1" d="M271.31,666.05c-14.71,58.41-66.67,60.18-109.15,61.38c-55.09,1.56-86.95-41.15-113.79-89.27
			C36,641.95,23.08,645.9,0,652.96c31.38-54.32,81.18-73.12,123.23-74.79c61.51-2.44,112.78,35.34,148.22,88.6
			C271.44,666.77,271.31,666.05,271.31,666.05z"/>
	</g>
</g>
</svg>
