<svg version="1.1" xmlns="http://www.w3.org/2000/svg" xmlns:xlink="http://www.w3.org/1999/xlink" x="0px" y="0px" width="1366px"
	 height="668px" viewBox="0 0 1366 668" style="enable-background:new 0 0 1366 668;" xml:space="preserve">
<style type="text/css">
	.st0{fill:#81C46A;}
	.st1{fill:#6F8974;}
</style>
<defs>
</defs>
<polygon class="st0" points="798.2,0 562,164 365,154 259,289 193,310 139,445 2,572.92 2,648 2.95,648 10.46,597.16 152,465 
	206,330 272,309 378,174 575,184 840,0 "/>
<polygon class="st1" points="1353,0 840,0 575,184 378,174 272,309 206,330 152,465 10.46,597.16 2.95,648 0,668 1366,668 1366,0 
	"/>
</svg>
