<?xml version="1.0" encoding="utf-8"?>
<!-- Generator: Adobe Illustrator 23.0.1, SVG Export Plug-In . SVG Version: 6.00 Build 0)  -->
<svg version="1.1" id="Layer_1" xmlns="http://www.w3.org/2000/svg" xmlns:xlink="http://www.w3.org/1999/xlink" x="0px" y="0px"
	 viewBox="0 0 250 250" style="enable-background:new 0 0 250 250;" xml:space="preserve">
<style type="text/css">
	.st0{fill:rgba(158, 191, 38, .65);}
</style>
<path class="st0" d="M229.97,0H20.03C8.97,0,0,8.97,0,20.03v209.94C0,241.03,8.97,250,20.03,250h209.94
	c11.06,0,20.03-8.97,20.03-20.03V20.03C250,8.97,241.03,0,229.97,0z M225.48,207.08c-2.02,2.29-4.88,4.1-8.56,5.43
	c-3.69,1.34-7.85,2.01-12.48,2.01c-4.99,0-9.21-0.69-12.66-2.07c-3.45-1.38-6.24-3.09-8.38-5.14c-2.14-2.05-6.12-6.02-11.95-11.93
	l-46.01-47.95l-48.86,49.37c-3.81,3.94-6.51,6.69-8.11,8.27c-1.61,1.58-3.54,3.11-5.8,4.61c-2.26,1.5-4.93,2.68-8.02,3.54
	c-3.09,0.87-6.72,1.3-10.88,1.3c-6.42,0-11.74-1.3-15.96-3.9c-4.22-2.6-6.33-6.38-6.33-11.34c0-5.83,4.34-12.95,13.02-21.38
	l58.49-56.57L43.77,71.03c-4.64-4.88-8.11-9.07-10.43-12.58c-2.32-3.5-3.48-6.87-3.48-10.1c0-3.31,2.23-6.28,6.69-8.92
	c4.46-2.64,9.9-3.96,16.32-3.96c7.37,0,13.11,1.44,17.21,4.31c4.1,2.88,9.78,8.21,17.03,16l39.23,42.04l41.91-42.04
	c3.45-3.54,6.39-6.57,8.83-9.09c2.44-2.52,4.78-4.61,7.04-6.26c2.26-1.65,4.79-2.89,7.58-3.72c2.79-0.83,6.03-1.24,9.72-1.24
	c6.66,0,12.09,1.32,16.32,3.96c4.22,2.64,6.33,5.77,6.33,9.39c0,5.28-4.58,12.44-13.73,21.49l-51.54,51.02l55.46,56.57
	c4.99,4.96,8.62,9.08,10.88,12.34c2.26,3.27,3.39,6.36,3.39,9.27C228.52,202.28,227.51,204.8,225.48,207.08z"/>
</svg>
