<!-- Generator: Adobe Illustrator 23.0.1, SVG Export Plug-In  -->
<svg version="1.1" xmlns="http://www.w3.org/2000/svg" xmlns:xlink="http://www.w3.org/1999/xlink" x="0px" y="0px"
	 width="222.63px" height="108.58px" viewBox="0 0 222.63 108.58" style="enable-background:new 0 0 222.63 108.58;"
	 xml:space="preserve">
<style type="text/css">
	.st0{opacity:0.59;}
	.st1{fill:rgba(158, 191, 38, .6);}
	.st2{display:none;fill:#9EBF26;}
</style>
<defs>
</defs>
<g class="st0">
	<path class="st1" d="M26.37,93.07c-4.96,2.95-10.16,3.84-15.64,1.73c-4.57-1.76-7.74-5.03-9.49-9.53
		c-1.93-4.98-1.68-9.82,1.29-14.5c2.9-4.58,7.05-7.1,12.42-8.1c-2.58-5.71-3.32-11.36-0.81-17.14c1.49-3.45,3.71-6.36,6.86-8.33
		c8.05-5.02,16.05-3.97,21.72-0.08c6.84,4.69,10.86,13.95,7.18,23.78c0.96-0.98,1.98-1.91,2.87-2.95c2.08-2.44,2.06-2.46,5.01-1.39
		c0.64,0.23,1.28,0.45,2.16,0.76c-0.18-3.49,0.76-6.28,4.74-6.63c2.14-0.19,4,1.15,5.21,3.49c2.63-0.95,5.29-1.88,7.93-2.86
		c5.13-1.89,10.26-3.79,15.39-5.7c8.79-3.27,17.57-6.56,26.35-9.83c6.44-2.39,12.89-4.75,19.32-7.16
		c7.72-2.89,15.41-5.83,23.13-8.73c4.89-1.84,9.8-3.62,14.69-5.44c7.86-2.92,15.71-5.86,23.57-8.77c2.1-0.78,4.26-1.41,6.33-2.26
		c0.96-0.4,1.21-0.15,1.32,0.73c0.04,0.36,0.19,0.71,0.63,1.18c0.4-0.68,0.85-1.34,1.19-2.04c1.42-2.95,4.8-4.06,7.88-2.77
		c3.47,1.45,4.97,5.87,2.41,9.15c-1.86,2.39-4.12,3.24-7.4,1.92c-0.55-0.22-1.11-0.45-1.98-0.8c0.1,0.63,0.05,1.13,0.25,1.5
		c0.43,0.79,0.19,1.08-0.61,1.37c-3.62,1.31-7.22,2.68-10.83,4.04c-0.26,0.1-0.49,0.3-0.72,0.45c1.21,3.54,1.19,3.51,4.58,2.16
		c3.03-1.21,6.1-2.34,9.15-3.49c0.23-0.09,0.5-0.05,0.69-0.07c0.71,1.89,1.4,3.74,2.1,5.59c0.26,0.7,0.36,1.3-0.53,1.68
		c-0.37,0.16-0.62,0.62-0.99,0.79c-1.54,0.7-1.12,1.82-0.59,2.88c0.16,0.33,0.73,0.59,1.14,0.62c0.79,0.06,1.61-0.14,2.4-0.07
		c0.35,0.03,0.84,0.4,0.96,0.72c1.64,4.36,3.21,8.73,4.82,13.1c0.32,0.87,0.23,1.29-0.82,1.63c-3.09,1-6.13,2.16-9.17,3.3
		c-0.78,0.29-1.16,0.3-1.48-0.65c-0.95-2.74-2.06-5.43-3.08-8.15c-0.4-1.07-0.85-1.77-2.12-0.9c-0.58,0.39-1.31,0.64-2,0.77
		c-1.47,0.27-1.37,1.06-0.96,2.16c1.04,2.73,2.01,5.49,3,8.23c0.1,0.28,0.13,0.58,0.2,0.95c-3.03,1.1-6.06,2.21-9.14,3.33
		c-1.32-3.61-2.59-7.09-3.9-10.67c-1.55,0.54-3.05,1.01-4.52,1.58c-0.98,0.38-0.43,1.12-0.22,1.71c1.02,2.79,2.06,5.56,3.08,8.34
		c0.11,0.31,0.16,0.64,0.25,1.03c-3.16,1.19-6.3,2.37-9.45,3.56c-0.35,0.13-0.72,0.23-1.06,0.39c-0.64,0.3-0.94,0.16-1.19-0.55
		c-1.58-4.41-3.2-8.81-4.84-13.21c-0.27-0.74-0.32-1.26,0.54-1.62c0.36-0.15,0.6-0.59,0.93-0.86c1.45-1.18,1.5-1.2,0.57-2.76
		c-0.22-0.37-0.8-0.64-1.26-0.72c-0.51-0.09-1.06,0.1-1.59,0.14c-0.94,0.08-1.55-0.25-1.86-1.25c-0.46-1.49-1.09-2.92-1.62-4.38
		c-0.21-0.58-0.3-0.98,0.59-1.28c3.61-1.24,7.16-2.64,10.73-3.98c0.39-0.15,0.78-0.3,1.4-0.53c-0.45-1.3-0.86-2.51-1.31-3.82
		c-36.4,13.39-72.62,26.71-108.84,40.03c0.69,2.52,0.12,5.07-1.65,6.13c-3.21,1.92-5.82,1.04-7.74-2.21
		c-0.69,1.19-1.35,2.16-1.83,3.21c-0.49,1.09-1.08,1.6-2.39,1.36c-1.94-0.35-3.91-0.48-6.2-0.75c10.29,6.7,13.9,15.55,8.82,26.54
		c-3.6,7.78-11.09,11.29-19.87,10.22C34.94,107.51,28.13,101.79,26.37,93.07z M23.08,71.81c-2.02-0.62-3.7-1.27-5.45-1.63
		c-1.78-0.37-3.51,0.15-5.07,1.05c-1.58,0.91-2.88,2.12-3.78,3.77c-2.54,4.66-1.07,10.09,4.52,12.66c2.15,0.99,4.51,1.1,6.79,0.3
		c3.36-1.18,4.92-3.98,6.13-7.19c2.79,1.08,5.49,2.12,8.17,3.16c-0.84,2.04-1.34,3.93-1.29,6.02c0.14,5.82,4.45,10.35,9.79,11.39
		c4.42,0.86,8.31-0.39,11.4-3.9c2.63-2.98,3.81-6.47,3.03-10.22c-1.36-6.52-6.72-10.7-13.65-9.81c-1.22,0.16-1.76-0.1-1.99-1.3
		c-0.08-0.45-0.56-0.83-0.86-1.24c-0.28,0.39-0.69,0.75-0.81,1.19c-0.79,2.91-3.47,3.5-5.44,2.9c-4.17-1.27-6.34-8.04-3.66-11.34
		c0.99-1.22,3.14-2.39,4.89-1.24c0.66,0.43,1.48,0.62,2.23,0.91c0.09-0.11,0.17-0.23,0.26-0.34c-0.13-0.38-0.22-0.77-0.39-1.13
		c-0.52-1.11-0.43-1.8,0.77-2.59c3.76-2.47,5.6-6.14,5.46-10.59c-0.18-5.72-4.06-9.94-9.09-11.24c-6.71-1.74-13.13,2.09-14.94,8.79
		c-1.47,5.47,0.98,10.37,5.14,13.07c1.74,1.13,1.79,1.05,0.95,2.9c-0.04,0.08-0.03,0.17-0.07,0.25
		C25.04,68.3,23.98,70.21,23.08,71.81z"/>
	<path class="st2" d="M23.08,71.81c0.89-1.6,1.96-3.51,3.02-5.42c0.04-0.07,0.03-0.17,0.07-0.25c0.84-1.85,0.79-1.77-0.95-2.9
		c-4.16-2.7-6.61-7.6-5.14-13.07c1.8-6.7,8.23-10.53,14.94-8.79c5.03,1.3,8.91,5.52,9.09,11.24c0.14,4.45-1.7,8.12-5.46,10.59
		c-1.2,0.79-1.3,1.48-0.77,2.59c0.17,0.36,0.26,0.75,0.39,1.13c-0.09,0.11-0.17,0.23-0.26,0.34c-0.75-0.3-1.57-0.48-2.23-0.91
		c-1.75-1.14-3.89,0.02-4.89,1.24c-2.68,3.3-0.51,10.06,3.66,11.34c1.97,0.6,4.65,0,5.44-2.9c0.12-0.44,0.54-0.79,0.81-1.19
		c0.3,0.41,0.78,0.79,0.86,1.24c0.23,1.21,0.77,1.46,1.99,1.3c6.93-0.89,12.3,3.29,13.65,9.81c0.78,3.75-0.4,7.24-3.03,10.22
		c-3.1,3.52-6.98,4.77-11.4,3.9c-5.34-1.04-9.64-5.57-9.79-11.39c-0.05-2.08,0.45-3.98,1.29-6.02c-2.67-1.03-5.38-2.08-8.17-3.16
		c-1.21,3.2-2.77,6.01-6.13,7.19c-2.28,0.8-4.64,0.68-6.79-0.3c-5.6-2.57-7.06-8-4.52-12.66c0.9-1.65,2.2-2.86,3.78-3.77
		c1.56-0.9,3.29-1.41,5.07-1.05C19.38,70.54,21.06,71.19,23.08,71.81z"/>
</g>
</svg>

