<svg id="Layer_1" data-name="Layer 1" xmlns="http://www.w3.org/2000/svg" viewBox="0 0 250 250"><defs><style>.cls-1{fill:rgba(158, 191, 38, .6);}</style></defs><title>quickbook</title><path class="cls-1" d="M125,0A125,125,0,1,0,250,125,125,125,0,0,0,125,0Zm-4.87,200.31a24.08,24.08,0,0,1-.57,3.63c-10.08.45-17.63-7.17-17.67-17.92-.1-27,0-54.05,0-81.07V98.54c-19.62-2.3-30.36-.94-39.19,12.19-6.2,9.21-6.51,19.2-1.19,28.9,4.94,9,12.71,14.23,23.22,14.77,9,.45,9,.4,9,9.57s0,9.23-9,8.71C61,171.33,43.2,155.09,40.16,130.93,37.7,111.37,48.43,90.8,70.31,82.45a49.56,49.56,0,0,1,15.15-2.84c10-.43,20,0,30-.2,3.66-.07,4.78,1.29,4.77,4.85C120.12,122.94,120.16,161.62,120.13,200.31Zm48.24-27.79c-10.7.6-21.46.15-32.2.25-2.66,0-4.12-.75-4.11-3.75q.13-59.69.19-119.36a5.25,5.25,0,0,1,.56-1.4c10-.34,17.48,7.23,17.52,18,.1,27,0,54,0,81.06v6.77c14.88.95,29.08,2.2,38.62-11.71,6.41-9.34,7.27-19.29,2-29.33-5-9.51-13.07-14.86-24-15.25-8.75-.32-8.35,1.33-8.35-9,0-9.79,0-9.79,9.63-9.16,24.89,1.65,44.08,21.7,44.17,46.17A46.34,46.34,0,0,1,168.37,172.52Z"/></svg>