<?xml version="1.0" encoding="utf-8"?>
<!-- Generator: Adobe Illustrator 23.0.1, SVG Export Plug-In . SVG Version: 6.00 Build 0)  -->
<svg version="1.1" id="Layer_1" xmlns="http://www.w3.org/2000/svg" xmlns:xlink="http://www.w3.org/1999/xlink" x="0px" y="0px"
	 viewBox="0 0 250 250" style="enable-background:new 0 0 250 250;" xml:space="preserve">
<style type="text/css">
	.st0{fill:rgba(158, 191, 38, .6);}
	.st1{fill:rgb(111, 141, 110);}
	.st2{font-family:'PlayfairDisplay-Regular';}
	.st3{font-size:87.59px;}
	.st4{letter-spacing:-4;}
</style>
<path class="st0" d="M125,0C56,0,0,56,0,125s56,125,125,125s125-56,125-125S194,0,125,0z M198.7,187.5l-147.5,0c-2.8,0-5-2.2-5-5
	c0-2.8,2.2-5,5-5c0,0,0,0,0,0l147.5,0c2.8,0,5,2.2,5,5C203.7,185.3,201.5,187.5,198.7,187.5z M198.7,167.5
	C198.7,167.5,198.7,167.5,198.7,167.5l-147.5,0c-2.8,0-5-2.2-5-5c0-2.8,2.2-5,5-5c0,0,0,0,0,0l147.5,0c2.8,0,5,2.2,5,5
	C203.7,165.3,201.5,167.5,198.7,167.5z M198.7,147.5l-147.5,0c-2.8,0-5-2.2-5-5c0-2.8,2.2-5,5-5c0,0,0,0,0,0l147.5,0
	c2.8,0,5,2.2,5,5C203.7,145.3,201.5,147.5,198.7,147.5z"/>
<text transform="matrix(1 0 0 1 44.86 114.38)" class="st1 st2 st3 st4">T</text>
<text transform="matrix(1 0 0 1 95.15 114.38)" class="st1 st2 st3">A</text>
<text transform="matrix(1 0 0 1 150.32 114.38)" class="st1 st2 st3">X</text>
<title>tax</title>
</svg>
